<?xml version="1.0" standalone="no"?>
<!DOCTYPE svg PUBLIC "-//W3C//DTD SVG 20010904//EN"
 "http://www.w3.org/TR/2001/REC-SVG-20010904/DTD/svg10.dtd">
<svg version="1.0" xmlns="http://www.w3.org/2000/svg"
 width="1544.000000pt" height="1478.000000pt" viewBox="0 0 1450.000000 1478.000000"
 preserveAspectRatio="xMidYMid meet">

<g transform="translate(0.000000,1478.000000) scale(0.100000,-0.100000)"
fill="#FFFFFF" stroke="none">
<path d="M0 7390 l0 -7390 7720 0 7720 0 0 7390 0 7390 -7720 0 -7720 0 0
-7390z m9661 6200 c380 -29 692 -108 982 -248 163 -79 297 -163 453 -285 342
-267 598 -530 1134 -1167 118 -140 287 -338 375 -440 283 -326 446 -536 632
-815 398 -599 474 -815 563 -1600 17 -148 46 -389 65 -535 61 -469 76 -637 82
-946 13 -671 -61 -966 -446 -1787 -221 -470 -318 -652 -491 -923 -227 -354
-421 -585 -855 -1020 -447 -448 -741 -713 -1137 -1027 -286 -226 -385 -287
-803 -492 -159 -78 -344 -175 -410 -215 -418 -255 -680 -375 -1095 -499 -332
-99 -1271 -331 -1640 -405 -865 -173 -1551 -197 -2176 -75 -310 60 -996 278
-1464 466 -779 311 -1383 769 -1759 1333 -301 449 -488 917 -646 1614 -20 88
-38 163 -40 167 -3 4 -16 86 -30 184 -14 97 -27 180 -30 184 -10 17 -54 252
-64 346 -84 765 -97 1350 -45 1980 3 39 10 74 15 80 5 5 9 23 9 40 0 16 9 54
19 83 11 28 22 70 26 92 4 22 11 42 16 46 5 3 9 27 9 53 0 35 5 53 20 66 11
10 20 24 20 30 0 7 13 39 30 71 16 32 70 154 120 269 51 116 164 354 252 530
150 299 163 329 199 465 77 296 128 376 465 731 66 69 159 170 209 224 111
122 195 189 373 299 94 58 176 120 253 188 63 57 134 119 159 139 144 113 320
179 480 179 l81 0 13 -32 c21 -52 40 -284 32 -392 -14 -199 -57 -346 -115
-391 -15 -10 -57 -49 -96 -86 -105 -100 -212 -180 -353 -266 -136 -84 -175
-119 -417 -377 -171 -182 -253 -275 -270 -307 -8 -14 -28 -81 -45 -148 -43
-171 -58 -208 -229 -550 -247 -494 -420 -898 -494 -1158 -57 -198 -62 -243
-62 -593 0 -339 8 -464 51 -790 28 -208 33 -241 110 -640 104 -535 188 -885
274 -1135 182 -527 447 -934 795 -1220 416 -342 812 -533 1680 -813 591 -191
737 -219 1186 -229 511 -11 963 48 1708 223 289 68 927 231 1116 285 319 92
567 202 875 389 168 102 446 248 637 335 89 41 258 135 333 186 220 147 692
551 1085 927 645 617 954 1021 1251 1636 338 701 428 931 487 1236 19 102 21
148 21 405 0 319 -8 421 -74 930 -22 165 -51 406 -65 535 -74 665 -104 754
-420 1235 -184 280 -296 423 -610 785 -88 102 -254 296 -368 431 -294 350
-412 483 -577 653 -292 299 -530 486 -750 590 -256 120 -516 168 -905 167
-305 -1 -492 -20 -1165 -121 -374 -56 -613 -87 -1490 -195 -865 -106 -1381
-193 -1875 -316 -932 -233 -2435 -828 -2935 -1163 -113 -75 -156 -111 -385
-321 -328 -300 -408 -390 -493 -552 -15 -29 -30 -53 -34 -53 -12 0 -10 297 2
387 26 204 32 241 42 288 12 58 77 265 88 280 4 6 19 41 34 80 70 178 260 497
344 577 103 99 712 397 1297 633 602 244 1361 501 1816 615 578 146 1135 237
2279 376 643 77 794 97 1240 164 793 119 1155 147 1521 120z m-3551 -5430 c91
-5 309 -14 485 -20 1019 -33 1619 -67 1795 -102 111 -21 188 -80 241 -185 32
-62 34 -74 34 -163 0 -79 -4 -102 -23 -137 -31 -60 -97 -119 -172 -156 -60
-30 -72 -32 -165 -32 -55 0 -181 8 -280 18 -242 23 -597 43 -1085 62 -714 27
-1123 45 -1184 50 -132 14 -234 81 -297 197 -30 57 -33 71 -33 143 0 60 5 92
21 127 44 96 127 172 226 204 44 15 76 14 437 -6z m-315 -1073 c194 -32 497
-66 945 -107 724 -66 1133 -128 1600 -241 312 -75 373 -99 439 -175 60 -68 86
-138 85 -229 0 -103 -31 -172 -109 -244 -116 -105 -208 -114 -469 -46 -458
119 -845 180 -1586 250 -808 76 -1211 124 -1296 156 -74 28 -137 88 -176 167
-30 61 -33 74 -33 162 0 84 3 102 28 152 32 64 88 116 160 148 103 46 162 47
412 7z"/>
</g>
</svg>
