<svg width="157" height="64" viewBox="0 0 157 64" fill="none" xmlns="http://www.w3.org/2000/svg">
<g clip-path="url(#clip0_8_2)">
<path d="M-2.06579 30.1205C-1.36588 29.6923 -1.13479 28.8391 -0.662114 28.1623C-0.189995 27.4854 0.574441 26.8927 1.15687 26.334C1.81486 25.7024 2.42762 25.3233 3.2621 24.9005C5.40705 23.8132 7.79633 22.9212 10.0521 22.1942C13.6697 21.0287 17.4808 20.7812 21.1718 20.2807C24.2609 19.8616 27.8013 18.9448 30.495 20.8896C32.437 22.2912 33.817 24.2759 35.4556 26.1123C36.4467 27.2228 37.1742 28.2507 37.9508 29.5602C38.686 30.7995 38.6898 32.3571 38.8928 33.8693C39.0919 35.353 39.3759 37.2659 39.189 38.7846C38.9937 40.3692 38.2662 41.6635 37.6281 43.0528C36.8488 44.7479 35.8792 46.1857 34.6327 47.472C33.175 48.9756 31.6941 50.3589 30.0466 51.6053C29.0577 52.3555 27.8405 52.7103 26.8201 53.3699C25.4716 54.2436 24.3608 54.6282 22.8336 55.0181C19.0919 55.9754 15.0055 57.1419 11.2843 55.9452C8.85584 55.1648 6.59286 54.5117 4.58525 52.7713C3.16338 51.5379 2.22465 49.825 1.65436 47.8522C1.29586 46.6112 1.04601 45.2041 0.797816 43.9297C0.523148 42.5216 0.330108 40.4943 0.451999 39.0112C0.553483 37.7691 1.29365 36.2035 1.76687 35.1416C2.05588 34.4933 2.40942 33.8698 2.73373 33.2086C2.93228 32.8042 2.9753 32.1311 3.19702 31.7902C3.54615 31.2552 4.22951 30.6577 4.65144 30.1491C5.23662 29.4431 5.6227 29.3892 6.23105 28.9405C6.79418 28.5258 7.20728 27.8397 7.9458 27.891" stroke="black" stroke-width="2.50221"/>
<path d="M14.4099 38.701C15.0778 38.8434 16.5736 39.0139 18.8978 39.2123C20.8149 39.4113 22.4558 39.7096 23.8214 40.1065C24.1115 40.1917 24.3299 40.3627 24.4755 40.6178C24.6206 40.874 24.6498 41.1442 24.5626 41.4273C24.4755 41.7115 24.3007 41.9245 24.0398 42.0669C23.7789 42.2093 23.5015 42.2368 23.2119 42.1516C21.9334 41.7827 20.4377 41.5125 18.724 41.3421C16.225 41.115 14.6426 40.9451 13.9747 40.8313C13.684 40.7747 13.4585 40.6253 13.2991 40.3837C13.1391 40.1432 13.0812 39.8724 13.1248 39.5742C13.1683 39.276 13.3134 39.0489 13.5605 38.8925C13.8065 38.7366 14.0894 38.673 14.4099 38.701ZM15.0199 35.3778C15.5714 35.4349 16.8786 35.4916 18.9413 35.5482C20.655 35.6048 22.02 35.6906 23.0371 35.8038C23.3266 35.8324 23.5671 35.9678 23.7563 36.2083C23.9449 36.4499 24.0243 36.7137 23.9962 36.9968C23.967 37.281 23.8285 37.5156 23.5826 37.7001C23.3349 37.8851 23.0663 37.9627 22.7762 37.9347C21.8176 37.8214 20.5248 37.7362 18.8983 37.6785C16.6613 37.5938 15.3105 37.5367 14.8461 37.5086C14.5555 37.4806 14.3078 37.3528 14.1054 37.1252C13.9019 36.8981 13.8148 36.6419 13.844 36.3583C13.8727 36.0746 14.0034 35.8324 14.2361 35.6334C14.4678 35.4349 14.7292 35.3497 15.0199 35.3778Z" fill="black"/>
<path d="M77.6777 39.0288L77.6033 40.7032H58.6927C58.9905 44.8529 61.8197 46.8428 65.2197 46.8428C67.7759 46.8428 69.7612 45.678 70.7291 43.4697L77.2808 44.4161C75.5932 49.4638 71.0021 52.3516 65.2692 52.3516C57.0299 52.3516 51.6447 47.5951 51.6447 39.3931C51.6447 31.191 57.1789 26.3859 65.0459 26.3859C72.2676 26.3859 77.6528 30.2928 77.6777 39.0288ZM65.0967 31.3362C61.8456 31.3362 59.5872 32.8165 58.8924 36.1411H70.6061C70.2339 32.9621 68.0252 31.3362 65.0967 31.3362ZM101.553 26.9197H108.328V64H101.18V48.9544C99.6666 51.187 96.6885 52.449 93.3879 52.449C86.6625 52.449 81.1034 47.6198 81.1034 39.4418C81.1034 31.2639 86.6625 26.4346 93.3879 26.4346C96.8374 26.4346 99.9396 27.7693 101.379 30.1961L101.553 26.9197ZM95.0011 46.6486C98.8229 46.6486 101.776 43.8094 101.776 39.4413C101.776 35.0733 98.798 32.234 95.0011 32.234C91.2538 32.234 88.2507 34.9033 88.2507 39.4413C88.2507 43.9793 91.2535 46.6486 95.0011 46.6486ZM132.649 26.9197H139.796V51.866H133.021L132.847 48.857C131.06 51.0653 128.231 52.3516 124.732 52.3516C118.602 52.3516 115.227 49.2211 115.227 43.7124V26.9197H122.399V42.2078C122.399 45.5081 124.509 46.7215 126.99 46.7215C129.944 46.7215 132.624 45.2654 132.649 40.6791L132.649 26.9197ZM150.839 23.1823C148.581 23.1823 146.695 21.3866 146.695 19.154C146.695 16.9457 148.581 15.15 150.839 15.15C153.048 15.15 154.934 16.9458 154.934 19.154C154.934 21.3866 153.048 23.1823 150.839 23.1823ZM147.191 51.866V26.9197H154.388V51.866H147.191Z" fill="black"/>
</g>
<defs>
<clipPath id="clip0_8_2">
<rect width="157" height="64" fill="white"/>
</clipPath>
</defs>
</svg>
